<?xml version="1.0" encoding="UTF-8" standalone="no"?>
<!-- Created with Inkscape (http://www.inkscape.org/) -->

<svg
   width="100mm"
   height="100mm"
   viewBox="0 0 100 100"
   version="1.1"
   id="svg1"
   inkscape:version="1.3.2 (091e20e, 2023-11-25, custom)"
   sodipodi:docname="logo.svg"
   inkscape:export-filename="logo+Sitrmoo.svg"
   inkscape:export-xdpi="304.79999"
   inkscape:export-ydpi="304.79999"
   xml:space="preserve"
   xmlns:inkscape="http://www.inkscape.org/namespaces/inkscape"
   xmlns:sodipodi="http://sodipodi.sourceforge.net/DTD/sodipodi-0.dtd"
   xmlns:xlink="http://www.w3.org/1999/xlink"
   xmlns="http://www.w3.org/2000/svg"
   xmlns:svg="http://www.w3.org/2000/svg"><sodipodi:namedview
     id="namedview1"
     pagecolor="#ffffff"
     bordercolor="#000000"
     borderopacity="0.25"
     inkscape:showpageshadow="2"
     inkscape:pageopacity="0.0"
     inkscape:pagecheckerboard="0"
     inkscape:deskcolor="#d1d1d1"
     inkscape:document-units="mm"
     showguides="true"
     inkscape:zoom="1.5345833"
     inkscape:cx="253.81482"
     inkscape:cy="238.1754"
     inkscape:window-width="1920"
     inkscape:window-height="1009"
     inkscape:window-x="-8"
     inkscape:window-y="-8"
     inkscape:window-maximized="1"
     inkscape:current-layer="layer1"
     inkscape:export-bgcolor="#ffffff00" /><defs
     id="defs1"><linearGradient
       id="linearGradient1"
       inkscape:collect="always"><stop
         style="stop-color:#ff1493;stop-opacity:1;"
         offset="0"
         id="stop1" /><stop
         style="stop-color:#ff1493;stop-opacity:0;"
         offset="1"
         id="stop2" /></linearGradient><linearGradient
       id="swatch6"
       inkscape:swatch="solid"><stop
         style="stop-color:#000000;stop-opacity:1;"
         offset="0"
         id="stop6" /></linearGradient><linearGradient
       inkscape:collect="always"
       xlink:href="#linearGradient1"
       id="linearGradient2"
       x1="-16.741369"
       y1="127.24138"
       x2="127.39656"
       y2="0.34482759"
       gradientUnits="userSpaceOnUse"
       gradientTransform="matrix(0.99011804,0,0,0.98627748,0.49903903,0.87814949)" /></defs><g
     inkscape:label="图层 1"
     inkscape:groupmode="layer"
     id="layer1"
     transform="translate(-0.50001001)"><path
       id="path6-8"
       style="fill:url(#linearGradient2);fill-opacity:1;stroke:#d77a8b;stroke-width:0.988196;stroke-dasharray:none;stroke-opacity:1"
       d="m 30.697621,64.986117 a 9.9011709,9.8627651 0 0 1 -9.901173,9.86277 9.9011709,9.8627651 0 0 1 -9.901168,-9.86277 9.9011709,9.8627651 0 0 1 9.901168,-9.862763 9.9011709,9.8627651 0 0 1 9.901173,9.862763 z M 90.104628,40.329209 a 9.9011709,9.8627651 0 0 1 -9.901157,9.862764 9.9011709,9.8627651 0 0 1 -9.901169,-9.862764 9.9011709,9.8627651 0 0 1 9.901169,-9.862771 9.9011709,9.8627651 0 0 1 9.901157,9.862771 z M 80.203244,20.603496 A 19.802341,19.725532 0 0 0 60.401087,40.329349 v 9.862673 H 50.50001 v 9.862673 h 9.901077 v 39.451207 h 9.901079 V 60.054695 h 9.901078 A 19.802341,19.725532 0 0 0 100.00592,40.329349 19.802341,19.725532 0 0 0 80.203244,20.603496 Z M 20.796263,0.87814952 V 5.8097409 h 9.90159 V 47.909706 A 19.802341,19.725532 0 0 0 20.796263,45.260432 19.802341,19.725532 0 0 0 0.99410796,64.986287 19.802341,19.725532 0 0 0 20.796263,84.711631 19.802341,19.725532 0 0 0 40.598932,64.986287 V 5.8097409 H 50.50001 V 0.87814952 Z" /></g></svg>
